<svg xmlns="http://www.w3.org/2000/svg" viewBox="0 0 315 120" role="img" aria-label="Urbis Advisory">
  <title>Urbis Advisory</title>
  <!-- Logotipo horizontal. Letras convertidas a trazos (Outfit 700/600): no requiere
       tener la tipografia instalada. "ADVISORY" va justificada al ancho de "urbis". -->
  <g>
    <clipPath id="ul-clip"><rect x="12" y="12" width="96" height="96" rx="24"/></clipPath>
    <rect x="12" y="12" width="96" height="96" rx="24" fill="#0F2A47"/>
    <g clip-path="url(#ul-clip)">
      <g stroke="#8FBF8B" stroke-width="2.9" opacity="0.4">
        <line x1="12" y1="45.6" x2="108" y2="45.6"/><line x1="12" y1="76.8" x2="108" y2="76.8"/>
        <line x1="45.6" y1="12" x2="45.6" y2="108"/><line x1="76.8" y1="12" x2="76.8" y2="108"/>
      </g>
      <path d="M19.2 98.4 L100.8 28.8" fill="none" stroke="#5E8C5A" stroke-width="7.8" stroke-linecap="round"/>
    </g>
    <circle cx="60" cy="63.6" r="9.6" fill="#D98E3D"/>
  </g>
  <g fill="#0F2A47">
    <path transform="translate(150.00,78.00) scale(0.07200,-0.07200)" d="M269.5 -11Q203.19784172661872 -11 151.59892086330936 16.5Q100 44 70.75 92.67303102625299Q41.5 141.34606205250597 41.5 204.39251411607194V486H194.5V206Q194.5 180.92285714285714 203.4375 162.8042857142857Q212.375 144.68571428571428 229.4278846153846 134.84285714285716Q246.48076923076923 125 269.66379310344826 125Q304 125 324.0 146.53Q344 168.06 344 206V486H497V204.5Q497 140.5 468.0 92.0Q439 43.5 387.7841726618705 16.25Q336.568345323741 -11 269.5 -11Z"/>
    <path transform="translate(188.81,78.00) scale(0.07200,-0.07200)" d="M54 0V486H207V0ZM207 266.5 142.5 316.5Q161.5 402 206.99693251533742 449.0Q252.49386503067484 496 331.5 496Q366.5 496 393.25 485.5Q420 475 440 453L349 338Q339 349 324.19444444444446 354.75Q309.3888888888889 360.5 290 360.5Q252 360.5 229.5 337.125786163522Q207 313.751572327044 207 266.5Z"/>
    <path transform="translate(220.78,78.00) scale(0.07200,-0.07200)" d="M334 -10Q284.5 -10 243.5 10.25Q202.5 30.5 176.75 65.25Q151 100 147 143V348Q151 391 177.0 424.5Q203 458 244.0 477.0Q285 496 334 496Q403 496 456.5 463.0Q510 430 540.5 372.75Q571 315.5 571 242.5Q571 170 540.5 113.0Q510 56 456.5 23.0Q403 -10 334 -10ZM54 0V726H207V366.5L181.5 249L204.5 130.5V0ZM307 128Q339 128 363.5 142.75Q388 157.5 402.0 183.5Q416 209.5 416 243Q416 276.5 402.0 302.5Q388 328.5 363.25 343.25Q338.5 358 306.5 358Q274.5 358 249.75 343.25Q225 328.5 211.5 302.75Q198 277 198 243Q198 209 211.75 183.0Q225.5 157 250.25 142.5Q275 128 307 128Z"/>
    <path transform="translate(263.62,78.00) scale(0.07200,-0.07200)" d="M54 0V486H207V0ZM130.5 553Q95 553 71.5 577.25Q48 601.5 48 637Q48 672.5 71.5 696.75Q95 721 130.5 721Q167 721 190.0 696.75Q213 672.5 213 637Q213 601.5 190.0 577.25Q167 553 130.5 553Z"/>
    <path transform="translate(282.41,78.00) scale(0.07200,-0.07200)" d="M230.5 -12.5Q187.5 -12.5 146.0 -1.25Q104.5 10 69.25 30.25Q34 50.5 9 78L95.5 166Q120 139.5 153.0 125.25Q186 111 225 111Q252 111 266.25 118.75Q280.5 126.5 280.5 141Q280.5 159 263.25 168.5Q246 178 219.0 185.25Q192 192.5 162.0 201.75Q132 211 104.75 227.0Q77.5 243 60.5 271.25Q43.5 299.5 43.5 344Q43.5 390.5 67.5 425.25Q91.5 460 135.5 479.75Q179.5 499.5 239 499.5Q300.5 499.5 353.25 478.25Q406 457 439 414.5L352 326.5Q329 353.5 300.5 364.75Q272 376 244.5 376Q218.5 376 205.75 368.25Q193 360.5 193 347Q193 331.5 210.0 322.5Q227 313.5 254.0 306.5Q281 299.5 310.75 289.75Q340.5 280 367.5 262.75Q394.5 245.5 411.5 217.0Q428.5 188.5 428.5 143Q428.5 71.5 375.0 29.5Q321.5 -12.5 230.5 -12.5Z"/>
  </g>
  <g fill="#5E8C5A">
    <path transform="translate(150.00,104.00) scale(0.01550,-0.01550)" d="M19.5 0 303.25 703H414.25L695.75 0H550.75L333 576.5H382.5L162 0ZM170 131.25V245.25H547.75V131.25Z"/>
    <path transform="translate(173.34,104.00) scale(0.01550,-0.01550)" d="M164.5 0V121.25H344Q412 121.25 463.125 149.625Q514.25 178 542.625 230.125Q571 282.25 571 352.5Q571 422 542.125 473.5Q513.25 525 462.25 553.375Q411.25 581.75 344 581.75H162V703H346.25Q424.25 703 490.625 676.875Q557 650.75 606.375 603.375Q655.75 556 683.125 492.0Q710.5 428 710.5 351.5Q710.5 275.75 683.125 211.375Q655.75 147 606.75 99.625Q557.75 52.25 491.5 26.125Q425.25 0 348.25 0ZM71.75 0V703H208V0Z"/>
    <path transform="translate(197.17,104.00) scale(0.01550,-0.01550)" d="M297.25 0 19.75 703H166.5L380.5 134H324L540.25 703H684.75L404.75 0Z"/>
    <path transform="translate(220.36,104.00) scale(0.01550,-0.01550)" d="M71.75 0V703H208V0Z"/>
    <path transform="translate(236.95,104.00) scale(0.01550,-0.01550)" d="M275.5 -10.5Q190.5 -10.5 130.125 18.625Q69.75 47.75 21 105.75L110.75 195.5Q142.25 154.75 183.0 132.25Q223.75 109.75 282.5 109.75Q336.25 109.75 367.375 130.875Q398.5 152 398.5 189Q398.5 220.75 380.5 240.875Q362.5 261 333.0 274.75Q303.5 288.5 268.0 300.125Q232.5 311.75 197.125 326.875Q161.75 342 132.25 364.625Q102.75 387.25 84.75 422.625Q66.75 458 66.75 511.75Q66.75 575.5 97.875 620.625Q129 665.75 183.0 689.625Q237 713.5 305.25 713.5Q377 713.5 435.0 686.875Q493 660.25 529.75 617L439.75 527.25Q409 560.75 376.375 577.0Q343.75 593.25 302.5 593.25Q255.75 593.25 229.0 575.0Q202.25 556.75 202.25 523.25Q202.25 494 220.25 476.0Q238.25 458 267.75 445.125Q297.25 432.25 332.75 420.25Q368.25 408.25 403.625 392.875Q439 377.5 468.5 353.5Q498 329.5 516.0 292.25Q534 255 534 199.5Q534 101.75 464.75 45.625Q395.5 -10.5 275.5 -10.5Z"/>
    <path transform="translate(258.03,104.00) scale(0.01550,-0.01550)" d="M401.25 -11Q324 -11 257.625 17.0Q191.25 45 141.375 94.625Q91.5 144.25 63.625 210.375Q35.75 276.5 35.75 352.5Q35.75 428.75 63.5 494.25Q91.25 559.75 140.625 609.375Q190 659 256.0 686.5Q322 714 399.25 714Q476.5 714 542.5 686.5Q608.5 659 658.25 609.375Q708 559.75 735.75 493.75Q763.5 427.75 763.5 351.5Q763.5 275.5 735.75 209.5Q708 143.5 658.625 94.125Q609.25 44.75 543.375 16.875Q477.5 -11 401.25 -11ZM399.25 115.5Q466.5 115.5 516.875 145.5Q567.25 175.5 595.625 228.875Q624 282.25 624 352.5Q624 404.75 607.75 447.75Q591.5 490.75 561.5 522.25Q531.5 553.75 490.5 570.625Q449.5 587.5 399.25 587.5Q332.75 587.5 282.375 558.0Q232 528.5 203.625 475.625Q175.25 422.75 175.25 352.5Q175.25 300 191.5 256.125Q207.75 212.25 237.375 181.125Q267 150 308.375 132.75Q349.75 115.5 399.25 115.5Z"/>
    <path transform="translate(282.68,104.00) scale(0.01550,-0.01550)" d="M171.5 293.75V399.5H334.5Q384.5 399.5 412.0 425.125Q439.5 450.75 439.5 495.75Q439.5 537 412.375 564.5Q385.25 592 335.25 592H171.5V703H347Q415 703 466.5 676.375Q518 649.75 546.625 603.625Q575.25 557.5 575.25 498Q575.25 436.25 546.5 390.5Q517.75 344.75 465.75 319.25Q413.75 293.75 344.5 293.75ZM71.75 0V703H208V0ZM455.75 0 223.5 304 348.75 343 621.25 0Z"/>
    <path transform="translate(304.86,104.00) scale(0.01550,-0.01550)" d="M290 271.25 17.5 703H174.75L385.75 356.5H296.25L507.25 703H661.75L387.25 271.25ZM272.25 0V343.5H408.5V0Z"/>
  </g>
</svg>
